# xmcd
#
# Track frame offsets:
#	150
#	17927
#	34785
#	49832
#	65925
#	83590
#	104550
#	120412
#	135592
#	150290
#	167310
#	180942
#	202675
#	222040
#	242997
#	257322
#
# Disc length: 3656
#
# Revision: 2
# Processed by: cddbd v1.5.1PL0 Copyright (c) Steve Scherf et al.
# Submitted via: CDex 1.50beta9
# Normalized: r1:TDELIM( - )
#
DISCID=c50e4610
DTITLE=Various Artist - Swiss Hit Collection Vol. 1
DYEAR=1994
DGENRE=
TTITLE0=Christine Lauterburg - Anneli
TTITLE1=Simple Communication - Mrs. Society
TTITLE2=Dodo Hug - Casino Zürihorn
TTITLE3=Stop the Shoppers - Aber äbe
TTITLE4=Manfred Ehlert's Amen - Make my Day
TTITLE5=Magaari - Weiss unter blauem Himmel
TTITLE6=Jellyfish Kiss - Cold Rain
TTITLE7=Aeronauten - Du bist nicht allein
TTITLE8=Baby Jail - Chindlifrässer
TTITLE9=D.J. Bobo - Take Control
TTITLE10=D.J. Igo - Freude Herrscht
TTITLE11=Natacha - Nadisna
TTITLE12=May Day - Mittelmeer
TTITLE13=Pippo Polina - Insieme
TTITLE14=Eugen - Gute Zeiten
TTITLE15=Resli - Outo
EXTD=YEAR: 1994
EXTT0=
EXTT1=
EXTT2=
EXTT3=
EXTT4=
EXTT5=
EXTT6=
EXTT7=
EXTT8=
EXTT9=
EXTT10=
EXTT11=
EXTT12=
EXTT13=
EXTT14=
EXTT15=
PLAYORDER=
